{
    "asset" : {
        "generator" : "Khronos glTF Blender I/O v1.7.33",
        "version" : "2.0"
    },
    "scene" : 0,
    "scenes" : [
        {
            "name" : "Scene",
            "nodes" : [
                0
            ]
        }
    ],
    "nodes" : [
        {
            "mesh" : 0,
            "name" : "RiflePlaceholder",
            "rotation" : [
                0.7071068286895752,
                0,
                0,
                0.7071068286895752
            ],
            "scale" : [
                0.009999999776482582,
                0.009999999776482582,
                0.009999999776482582
            ],
            "translation" : [
                0,
                0.09796825051307678,
                -0.09366451948881149
            ]
        }
    ],
    "materials" : [
        {
            "doubleSided" : true,
            "name" : "RiflePlaceholder",
            "pbrMetallicRoughness" : {
                "baseColorTexture" : {
                    "index" : 0
                },
                "roughnessFactor" : 0.8318207263946533
            }
        }
    ],
    "meshes" : [
        {
            "name" : "Mesh.001",
            "primitives" : [
                {
                    "attributes" : {
                        "POSITION" : 0,
                        "NORMAL" : 1,
                        "TEXCOORD_0" : 2
                    },
                    "indices" : 3,
                    "material" : 0
                }
            ]
        }
    ],
    "textures" : [
        {
            "sampler" : 0,
            "source" : 0
        }
    ],
    "images" : [
        {
            "bufferView" : 4,
            "mimeType" : "image/png",
            "name" : "RiflePlaceholder"
        }
    ],
    "accessors" : [
        {
            "bufferView" : 0,
            "componentType" : 5126,
            "count" : 716,
            "max" : [
                2.9458935260772705,
                68.05610656738281,
                16.04068946838379
            ],
            "min" : [
                -2.9458935260772705,
                -23.62479019165039,
                -13.479412078857422
            ],
            "type" : "VEC3"
        },
        {
            "bufferView" : 1,
            "componentType" : 5126,
            "count" : 716,
            "type" : "VEC3"
        },
        {
            "bufferView" : 2,
            "componentType" : 5126,
            "count" : 716,
            "type" : "VEC2"
        },
        {
            "bufferView" : 3,
            "componentType" : 5123,
            "count" : 1260,
            "type" : "SCALAR"
        }
    ],
    "bufferViews" : [
        {
            "buffer" : 0,
            "byteLength" : 8592,
            "byteOffset" : 0
        },
        {
            "buffer" : 0,
            "byteLength" : 8592,
            "byteOffset" : 8592
        },
        {
            "buffer" : 0,
            "byteLength" : 5728,
            "byteOffset" : 17184
        },
        {
            "buffer" : 0,
            "byteLength" : 2520,
            "byteOffset" : 22912
        },
        {
            "buffer" : 0,
            "byteLength" : 3021,
            "byteOffset" : 25432
        }
    ],
    "samplers" : [
        {
            "magFilter" : 9729,
            "minFilter" : 9987
        }
    ],
    "buffers" : [
        {
            "byteLength" : 28456,
            "uri" : "data:application/octet-stream;base64,"
        }
    ]
}
